<?xml version="1.0" encoding="utf-8"?>
<!-- Generator: Adobe Illustrator 22.1.0, SVG Export Plug-In . SVG Version: 6.00 Build 0)  -->
<svg version="1.1" id="Capa_1" xmlns="http://www.w3.org/2000/svg" xmlns:xlink="http://www.w3.org/1999/xlink" x="0px" y="0px"
	 viewBox="0 0 188.1 188.1" style="enable-background:new 0 0 188.1 188.1;" xml:space="preserve">
<style type="text/css">
	.st0{fill:#EB6D4A;}
	.st1{fill:none;}
	.st2{fill:#421800;}
	.st3{fill:#F0D0B4;}
	.st4{fill:#B34FC5;}
	.st5{fill:#E7ECF2;}
</style>
<rect class="st0" width="188.1" height="188.1"/>
<circle class="st1" cx="94.1" cy="94.1" r="94.1"/>
<g>
	<polygon class="st2" points="149.6,97.8 149.6,185.2 38.8,183.3 38.8,95.9 	"/>
	<path class="st3" d="M135.9,58.3v25.8c0,0.5,0,0.9,0,1.4c0,0.4,0,0.7,0,1.1c0,0.3,0,0.7-0.1,1c0,0.2,0,0.5-0.1,0.7
		c0,0.1,0,0.3,0,0.4c0,0.3,0,0.5-0.1,0.8c0,0.5-0.1,1-0.2,1.5c0,0.1,0,0.2-0.1,0.4c0,0.2-0.1,0.5-0.1,0.7v0
		c-0.1,0.4-0.1,0.7-0.2,1.1c-0.1,0.5-0.2,1-0.3,1.5c0,0,0,0,0,0.1c0,0.1,0,0.1,0,0.2c0,0,0,0,0,0.1c-0.1,0.3-0.1,0.5-0.2,0.8
		c0,0.1,0,0.2-0.1,0.3c0,0.2-0.1,0.4-0.1,0.6c0,0.1-0.1,0.2-0.1,0.3c0,0.1-0.1,0.2-0.1,0.3c-0.2,0.8-0.5,1.7-0.7,2.5
		c-0.1,0.4-0.2,0.8-0.4,1.2c0,0,0,0.1,0,0.1c-0.1,0.3-0.2,0.7-0.4,1c0,0.1-0.1,0.2-0.1,0.3c-0.1,0.3-0.2,0.7-0.4,1
		c-0.2,0.4-0.3,0.8-0.5,1.2c-0.1,0.3-0.3,0.7-0.5,1c0,0.1-0.1,0.1-0.1,0.2c-0.2,0.4-0.3,0.7-0.5,1.1c-0.2,0.4-0.4,0.8-0.6,1.1
		c-0.4,0.8-0.8,1.5-1.2,2.2l-0.6,1c-1.6,2.7-3.3,5.3-5.3,7.6c-0.3,0.3-0.5,0.7-0.8,1c-0.4,0.5-0.8,0.9-1.2,1.4
		c-0.3,0.4-0.7,0.8-1,1.1c0,0,0,0,0,0.1c-1,1.1-2,2.1-3,3c-0.2,0.2-0.4,0.4-0.6,0.6c-0.3,0.3-0.7,0.6-1.1,0.9
		c-0.3,0.2-0.6,0.5-0.9,0.7c-0.7,0.6-1.5,1.2-2.2,1.7c-0.3,0.2-0.6,0.5-0.9,0.7c-0.5,0.4-1,0.7-1.6,1.1c-0.3,0.2-0.6,0.4-0.9,0.6
		c-1,0.6-2.1,1.2-3.2,1.8c-0.3,0.1-0.5,0.3-0.8,0.4c-0.3,0.1-0.5,0.2-0.8,0.4c-0.3,0.2-0.7,0.3-1,0.4c-0.1,0.1-0.3,0.1-0.4,0.2
		c-0.4,0.2-0.8,0.3-1.2,0.5c-0.5,0.2-1,0.3-1.5,0.5c-0.3,0.1-0.7,0.2-1.1,0.3c0,0,0,0-0.1,0c-0.3,0.1-0.7,0.2-1,0.2
		c-0.1,0-0.2,0-0.3,0.1c-0.3,0.1-0.6,0.1-0.9,0.1c-0.4,0.1-0.8,0.1-1.2,0.1c-0.1,0-0.3,0-0.4,0c-0.3,0-0.6,0-1,0h0c-0.3,0-0.6,0-1,0
		c-0.1,0-0.2,0-0.4,0c-0.3,0-0.6,0-0.9-0.1c-0.1,0-0.1,0-0.2,0c-0.4-0.1-0.8-0.1-1.2-0.2c-0.3-0.1-0.7-0.1-1-0.2
		c-1.8-0.4-3.6-1-5.4-1.8c-1.6-0.7-3.1-1.5-4.7-2.5c-0.8-0.5-1.6-1-2.4-1.5c-0.4-0.3-0.8-0.6-1.2-0.8c-1.2-0.9-2.4-1.9-3.6-2.9
		c-0.3-0.3-0.7-0.6-1-0.9c-0.3-0.3-0.7-0.6-1-0.9c-0.8-0.7-1.5-1.5-2.2-2.3c-0.1,0-0.1-0.1-0.1-0.1c-0.3-0.3-0.6-0.6-0.9-1
		c-0.8-0.9-1.6-1.9-2.4-2.9c-0.3-0.4-0.6-0.7-0.9-1.1c-1-1.4-2-2.8-3-4.3c-0.2-0.4-0.5-0.8-0.7-1.2c-0.3-0.5-0.6-1-0.8-1.5
		c-1-1.9-2-3.8-2.8-5.8c-0.1-0.3-0.2-0.6-0.3-0.9c-0.2-0.4-0.3-0.8-0.4-1.1c-0.2-0.5-0.4-1.1-0.6-1.6c-0.2-0.5-0.4-1.1-0.5-1.7
		c-0.2-0.5-0.3-1.1-0.5-1.6c-0.2-0.6-0.3-1.2-0.5-1.8c0-0.1,0-0.1,0-0.2c-0.2-0.8-0.4-1.7-0.5-2.5c-0.2-1.1-0.4-2.2-0.5-3.4
		c-0.1-0.4-0.1-0.7-0.1-1.1c0-0.4-0.1-0.8-0.1-1.1c-0.1-0.7-0.1-1.4-0.1-2.1c0-0.5,0-0.9,0-1.4V58.3c0-22.3,17.5-40.6,39.6-41.8
		c0,0,0.1,0,0.1,0c0.3,0,0.6,0,0.9,0c0.4,0,0.9,0,1.3,0h0c0.4,0,0.9,0,1.3,0c0.3,0,0.7,0,1,0h0c2.4,0.1,4.7,0.5,6.9,1
		c2.7,0.6,5.3,1.5,7.8,2.6c3.4,1.5,6.6,3.5,9.4,5.8c2.4,2,4.6,4.2,6.4,6.6c5.5,7,8.8,15.8,8.9,25.4C135.9,58,135.9,58.2,135.9,58.3z
		"/>
	<path class="st3" d="M148.6,200.7L148.6,200.7l-109.1,0v0c0-6.1,1-12,2.9-17.5c0-0.1,0-0.1,0.1-0.2c0.3-1,0.7-2,1.1-3v0
		c0.4-1,0.8-1.9,1.3-2.9c1.8-3.8,4-7.3,6.6-10.6c0.7-0.8,1.3-1.6,2-2.4c0.3-0.4,0.7-0.8,1.1-1.2c0.4-0.4,0.7-0.7,1.1-1.1
		c1.8-1.8,3.8-3.5,5.9-5.1c1-0.8,2.1-1.5,3.2-2.2c0.1-0.1,0.3-0.2,0.4-0.3c0.4-0.3,0.8-0.5,1.2-0.7c0.6-0.3,1.1-0.6,1.7-1
		c0,0,0,0,0,0c0.4-0.2,0.9-0.5,1.3-0.8c1.3-0.8,2.5-1.6,3.7-2.6c5-3.9,8.8-9.3,11-15.3c0.6-1.8,1.1-3.6,1.5-5.6c0.3-2,0.5-4,0.5-6.1
		l7.9,0h0.1l8,0c0,2,0.2,4,0.5,6c0.3,1.9,0.8,3.8,1.4,5.5c2.2,6.1,6,11.4,11,15.4c0.7,0.6,1.5,1.2,2.3,1.7c0.1,0.1,0.2,0.1,0.2,0.2
		c0.4,0.2,0.7,0.5,1.1,0.7c0.4,0.3,0.9,0.5,1.3,0.8c0.1,0,0.1,0.1,0.2,0.1c0.9,0.5,1.8,1,2.7,1.6c0.1,0,0.1,0.1,0.2,0.1
		c0.3,0.2,0.7,0.4,1,0.7c0.9,0.5,1.7,1.1,2.5,1.8c0,0,0,0,0,0h0c1,0.8,2,1.6,3,2.4s1.9,1.7,2.8,2.6c5.9,5.9,10.5,13.1,13.2,21.1
		C147.6,188.8,148.6,194.6,148.6,200.7z"/>
	<path class="st4" d="M148.6,200.7H39.5c0-6.1,1-12,2.9-17.5c0-0.1,0-0.1,0.1-0.2c0.3-1,0.7-2,1.1-3v0c0.4-1,0.8-1.9,1.3-2.9
		c1.8-3.8,4-7.3,6.6-10.6c0.7-0.8,1.3-1.6,2-2.4c0.3-0.4,0.7-0.8,1.1-1.2c0.4-0.4,0.7-0.7,1.1-1.1c1.8-1.8,3.8-3.5,5.9-5.1
		c1-0.8,2.1-1.5,3.2-2.2c0.1-0.1,0.3-0.2,0.4-0.3c0.4-0.3,0.8-0.5,1.2-0.7c0.6-0.3,1.1-0.7,1.7-1c0,0,0,0,0,0v0
		c0.4-0.2,0.9-0.5,1.3-0.8c1.3-0.8,2.5-1.6,3.7-2.6c0,0,0,0,0,0c5.3,5.4,12.7,8.8,21,8.9h0.1c8.2,0,15.6-3.4,21-8.8l0,0
		c0.7,0.6,1.5,1.2,2.3,1.7c0.1,0.1,0.2,0.1,0.2,0.2c0.4,0.2,0.8,0.5,1.1,0.7c0.4,0.3,0.9,0.5,1.3,0.7c0.1,0,0.1,0.1,0.2,0.1
		c0.9,0.5,1.8,1,2.7,1.6c0.1,0,0.1,0.1,0.2,0.1c0.3,0.2,0.7,0.4,1,0.7c0.9,0.5,1.7,1.1,2.5,1.8h0c1,0.8,2.1,1.6,3,2.4
		c1,0.8,1.9,1.7,2.8,2.6c5.9,5.9,10.5,13.1,13.2,21.1C147.6,188.8,148.6,194.6,148.6,200.7z"/>
	<path class="st2" d="M149.8,170.6c-0.1,0-0.2,0.1-0.2,0.1c-5.4,1.4-26.7-24.3-26.9-51.2c0-2.2,0.1-4.3,0.4-6.5
		c0.7-5.8,3.5-11.4,5.8-17c1.8-4.5,3.4-8.9,3.4-13.5c0-24.7-7.2-16.6-27.1-30c-4.8-3.2-8.2-5.8-10.9-8c-7.4-5.9-9.3-8-19.5-8
		c-12.9,0-18.1,22.5-19.5,32.1c-1.6,10.3-1.6,27.1,4.8,43c5,12.4,5,24.5-4.8,37.9c-3.7,5-9.3,22.1-16.4,27.6
		c-2.2,1.7-4.5,2.3-6.9,1.1c-19.2-9.8-7.6-41.3-1.9-61.1c6.2-21.2,8.1-42.8,12.6-64.2C47.6,28.7,68.3,14,76.6,20
		c2.8-5,10.1-6.9,17.5-6.9c5.5,0,11,1,15,2.6c30.5,11.8,31,40.1,32.6,51.8c1.3,9.7,6.1,18.8,7.8,28.4v0c0.4,2,0.6,4.1,0.6,6.1
		c0.1,11.2-1.2,18.8,7.3,28.1C164,137.3,159,166.5,149.8,170.6z"/>
	<g>
		<path class="st5" d="M94.2,158.3L94.2,158.3L94.2,158.3c-2.9,4.6-7.7,6.9-12.6,6.9c-3.9,0-7.9-1.6-10.9-4.7l-5.6-6
			c0.9-0.6,1.9-1.2,2.9-1.7c0,0,0,0,0,0v0c0.4-0.2,0.9-0.5,1.3-0.8c1.3-0.8,2.5-1.6,3.7-2.6c0,0,0,0,0,0c5.3,5.4,12.7,8.8,21,8.9
			L94.2,158.3L94.2,158.3z"/>
		<path class="st5" d="M123.1,154.6l-5.5,5.9c-3,3.2-6.9,4.7-10.9,4.7c-4.8,0-9.6-2.3-12.5-6.8l0,0l0-0.1c8.2,0,15.6-3.4,21-8.8l0,0
			c0.7,0.6,1.5,1.2,2.3,1.7c0.1,0.1,0.2,0.1,0.2,0.2c0.4,0.2,0.8,0.5,1.1,0.7c0.4,0.3,0.9,0.5,1.3,0.7c0.1,0,0.1,0.1,0.2,0.1
			c0.9,0.5,1.8,1,2.7,1.6C123,154.5,123.1,154.6,123.1,154.6z"/>
	</g>
</g>
</svg>
