<?xml version="1.0" encoding="utf-8"?>
<!-- Generator: Adobe Illustrator 22.1.0, SVG Export Plug-In . SVG Version: 6.00 Build 0)  -->
<svg version="1.1" id="Capa_1" xmlns="http://www.w3.org/2000/svg" xmlns:xlink="http://www.w3.org/1999/xlink" x="0px" y="0px"
	 viewBox="0 0 188.1 188.1" style="enable-background:new 0 0 188.1 188.1;" xml:space="preserve">
<style type="text/css">
	.st0{fill:#7DDBD4;}
	.st1{clip-path:url(#SVGID_2_);}
	.st2{fill:#141720;}
	.st3{fill:#B08874;}
	.st4{fill:#EFC7A1;}
	.st5{fill:#543E36;}
	.st6{fill:#1A1A1A;}
	.st7{clip-path:url(#SVGID_4_);fill:#141720;}
	.st8{clip-path:url(#SVGID_6_);fill:#141720;}
	.st9{fill:none;}
</style>
<rect class="st0" width="188.1" height="188.1"/>
<g>
	<defs>
		<circle id="SVGID_1_" cx="94.1" cy="94.1" r="94.1"/>
	</defs>
	<clipPath id="SVGID_2_">
		<use xlink:href="#SVGID_1_"  style="overflow:visible;"/>
	</clipPath>
	<g class="st1">
		<path class="st2" d="M152,66.7c0,1.6-0.1,3.2-0.2,4.8c-0.2,2.7-0.6,5.3-1.2,7.9c-0.8,3.6-1.9,7-3.4,10.3c-1.4,3.1-3,6.1-4.9,8.9
			c-1.5,2.2-3.1,4.4-4.9,6.4c-0.4,0.5-0.9,1-1.3,1.4c-1.5,1.6-3.1,3-4.7,4.4c-0.4,0.4-0.8,0.7-1.3,1c-2,1.6-4.2,3.1-6.5,4.5
			c-0.7,0.4-1.4,0.8-2.1,1.2c-5.8,3.1-12.2,5.3-19,6.3c-2.7,0.4-5.6,0.6-8.4,0.6c-2.8,0-5.6-0.2-8.3-0.6c-6.8-1-13.3-3.1-19.1-6.3
			c-1-0.5-1.9-1.1-2.8-1.6c-2.8-1.7-5.4-3.6-7.9-5.8c-0.3-0.2-0.5-0.5-0.8-0.7c-1.8-1.7-3.6-3.4-5.2-5.3c-0.3-0.3-0.6-0.7-0.9-1.1
			c-2.4-3-4.5-6.2-6.3-9.6c-0.2-0.3-0.3-0.7-0.5-1c-1.4-2.8-2.6-5.7-3.5-8.7c-0.2-0.6-0.4-1.2-0.5-1.8c-0.9-3.1-1.5-6.4-1.8-9.7
			c-0.1-0.6-0.1-1.1-0.1-1.7c-0.1-1.3-0.1-2.7-0.1-4c0-0.8,0-1.6,0.1-2.4c0-0.4,0-0.8,0.1-1.2c0.2-2.6,0.5-5.2,1-7.7
			c0.1-0.6,0.2-1.1,0.4-1.7c0.5-2,1-4,1.7-5.9c0.2-0.7,0.5-1.4,0.8-2.1c0.8-2.1,1.8-4.2,2.8-6.1c0.8-1.6,1.7-3.1,2.7-4.6
			c0.6-1,1.3-1.9,2-2.8c0.8-1,1.5-2,2.4-3c1.4-1.7,3-3.3,4.6-4.8c0.6-0.5,1.1-1,1.7-1.5c2.2-1.9,4.5-3.6,6.9-5.1
			c0.8-0.5,1.7-1,2.5-1.5c1.2-0.7,2.5-1.4,3.8-2c0.8-0.4,1.6-0.7,2.4-1.1c2.4-1,4.9-1.9,7.5-2.5c1.3-0.3,2.6-0.6,3.9-0.9
			c2-0.4,4.1-0.7,6.1-0.8c1-0.1,2.1-0.1,3.2-0.2c0.5,0,0.9,0,1.4,0c1.1,0,2.2,0,3.3,0.1c0.7,0,1.4,0.1,2.1,0.2
			c2.9,0.3,5.7,0.8,8.5,1.4c0.6,0.2,1.3,0.3,1.9,0.5c3.1,0.9,6.1,2,9,3.4c0.8,0.4,1.6,0.8,2.4,1.2c1.5,0.8,2.9,1.7,4.4,2.6
			c0.2,0.2,0.5,0.3,0.8,0.5c2,1.3,3.9,2.8,5.7,4.4c1.2,1,2.3,2.1,3.4,3.2c1.7,1.7,3.3,3.6,4.8,5.5c0.3,0.4,0.6,0.8,0.9,1.2
			c1.4,2,2.7,4.1,3.9,6.2c0.2,0.4,0.4,0.8,0.6,1.2c1.9,3.8,3.4,7.7,4.5,11.9c0.5,2.1,1,4.3,1.3,6.5C151.8,61.3,152,64,152,66.7z"/>
		<path class="st2" d="M58.6,105.8c0,0.1,0,0.1,0,0.2c-0.1,1.9-1.1,3.5-2.6,4.3c-0.2,0.1-0.4,0.2-0.6,0.3c-0.6,0.2-1.2,0.4-1.9,0.4
			c-2.8,0-5.1-2.3-5.1-5.1c0-0.5,0.1-1,0.2-1.4c0.1-0.4,0.3-0.8,0.5-1.2c0.9-1.5,2.5-2.5,4.4-2.5c0.5,0,0.9,0.1,1.3,0.2
			c0.7,0.2,1.3,0.5,1.8,0.9c0.4,0.3,0.8,0.7,1.1,1.2C58.3,103.8,58.6,104.7,58.6,105.8z"/>
		<path class="st2" d="M44.6,50.8c0,1-0.3,1.9-0.8,2.7c-0.9,1.5-2.5,2.4-4.3,2.4c-0.8,0-1.6-0.2-2.2-0.5c-0.4-0.2-0.7-0.4-1-0.6
			c-1.1-0.9-1.9-2.4-1.9-3.9c0-2.3,1.5-4.2,3.5-4.9c0.5-0.2,1-0.2,1.6-0.2c0.2,0,0.4,0,0.6,0c2.3,0.2,4.1,2,4.5,4.3
			C44.6,50.2,44.6,50.5,44.6,50.8z"/>
		<path class="st2" d="M73.2,16.7c0,1.1-0.4,2.1-1,3c-0.7,1-1.7,1.7-2.9,2c-0.4,0.1-0.8,0.1-1.2,0.1c-2.4,0-4.5-1.7-5-4
			C63.1,17.4,63,17,63,16.7c0-0.5,0.1-0.9,0.2-1.3c0.6-2.2,2.6-3.8,4.9-3.8c0.5,0,1.1,0.1,1.6,0.2c0.9,0.3,1.6,0.8,2.2,1.4
			C72.7,14.1,73.2,15.3,73.2,16.7z"/>
		<circle class="st2" cx="121.3" cy="18.9" r="5.1"/>
		<path class="st2" d="M43.6,67.7c0,0.6-0.1,1.3-0.3,1.8c-0.7,1.9-2.6,3.3-4.8,3.3c-0.7,0-1.4-0.1-2-0.4c-0.4-0.2-0.8-0.4-1.2-0.7
			c-1.2-0.9-1.9-2.4-1.9-4c0-1.7,0.9-3.3,2.2-4.2c0.2-0.2,0.5-0.3,0.7-0.4c0.7-0.3,1.4-0.5,2.2-0.5c2.2,0,4,1.3,4.8,3.2
			C43.5,66.4,43.6,67,43.6,67.7z"/>
		<circle class="st2" cx="133.2" cy="107.9" r="5.1"/>
		<circle class="st2" cx="138.4" cy="102" r="5.1"/>
		<circle class="st2" cx="126.4" cy="112.2" r="5.1"/>
		<path class="st2" d="M99.6,10.1c0,1.9-1,3.6-2.6,4.4c-0.8,0.4-1.6,0.7-2.5,0.7c-0.1,0-0.3,0-0.4,0c-1-0.1-1.9-0.4-2.7-1
			c-1.2-0.9-2-2.4-2-4.1c0-0.4,0-0.8,0.1-1.2c0.3-1.2,1-2.2,1.9-2.9c0.8-0.6,1.7-0.9,2.7-1c0.1,0,0.3,0,0.4,0c1.7,0,3.3,0.9,4.2,2.2
			c0.4,0.5,0.6,1.2,0.8,1.8C99.5,9.4,99.6,9.8,99.6,10.1z"/>
		<circle class="st2" cx="143.5" cy="35.7" r="5.1"/>
		<path class="st2" d="M56,96.9c0,0.8-0.1,1.6-0.4,2.4c-0.2,0.6-0.4,1.1-0.8,1.6c-1.1,1.7-2.8,2.9-4.8,3.4c-0.5,0.1-0.9,0.2-1.4,0.2
			c0,0-0.1,0-0.1,0c-4.2,0-7.5-3.4-7.5-7.5c0-1.2,0.3-2.4,0.8-3.4c0.2-0.3,0.3-0.6,0.5-0.9c1.4-2,3.6-3.2,6.2-3.2c0.2,0,0.4,0,0.6,0
			c1.6,0.1,3,0.7,4.1,1.7C54.9,92.4,56,94.5,56,96.9z"/>
		<path class="st2" d="M70.2,108.6c0,3.3-2.1,6.1-5.1,7.1c-0.4,0.1-0.8,0.2-1.2,0.3c-0.4,0.1-0.8,0.1-1.2,0.1
			c-3.5,0-6.4-2.4-7.3-5.6c-0.1-0.3-0.2-0.7-0.2-1c0-0.3-0.1-0.6-0.1-0.9c0-2.1,0.8-3.9,2.2-5.3c0.1-0.1,0.3-0.3,0.4-0.4
			c1.3-1.2,3-1.8,4.9-1.8C66.8,101.1,70.2,104.5,70.2,108.6z"/>
		<path class="st2" d="M52.2,42.4c0,4.2-3.4,7.5-7.5,7.5h-0.1c-2,0-3.9-0.8-5.2-2.2c-0.6-0.5-1-1.2-1.4-1.9c-0.5-1-0.9-2.2-0.9-3.5
			c0-3.1,1.9-5.8,4.6-6.9c0.9-0.4,1.9-0.6,2.9-0.6c0.3,0,0.7,0,1,0.1c3.3,0.4,6,3,6.4,6.4C52.1,41.7,52.2,42.1,52.2,42.4z"/>
		<circle class="st2" cx="113.8" cy="15.2" r="7.5"/>
		<path class="st2" d="M84.5,13.7c0,1-0.2,1.9-0.5,2.7c-1.1,2.8-3.8,4.8-7,4.8c-1.8,0-3.4-0.6-4.7-1.6c-1.6-1.3-2.7-3.2-2.8-5.4
			c0-0.2,0-0.4,0-0.5c0-0.7,0.1-1.3,0.3-1.9c0.8-3.2,3.8-5.6,7.2-5.6c1.2,0,2.3,0.3,3.2,0.7c1.3,0.6,2.4,1.6,3.2,2.8
			C84.1,10.9,84.5,12.3,84.5,13.7z"/>
		<path class="st2" d="M48.4,76.7c0,1.8-0.6,3.4-1.7,4.7c-1.4,1.7-3.5,2.8-5.8,2.8c-0.7,0-1.5-0.1-2.1-0.3c-0.5-0.1-1-0.4-1.5-0.6
			c-2.3-1.3-3.9-3.7-3.9-6.6c0-1.9,0.7-3.7,1.9-5c0.3-0.4,0.6-0.7,1-1c1.3-1,2.9-1.6,4.6-1.6c0.8,0,1.6,0.1,2.3,0.4
			C46.2,70.5,48.4,73.3,48.4,76.7z"/>
		<circle class="st2" cx="134.1" cy="30.3" r="7.5"/>
		<circle class="st2" cx="145.1" cy="46.7" r="7.5"/>
		<path class="st2" d="M69.4,22.8c0,4.2-3.4,7.5-7.5,7.5c-0.6,0-1.2-0.1-1.8-0.2c-2.8-0.7-5-2.9-5.6-5.7c-0.1-0.5-0.2-1.1-0.2-1.6
			c0-0.1,0-0.3,0-0.4c0.2-4,3.5-7.1,7.5-7.1c0.4,0,0.9,0,1.3,0.1c0.9,0.1,1.7,0.5,2.5,0.9c1.9,1.1,3.3,3.1,3.7,5.4
			C69.4,22,69.4,22.4,69.4,22.8z"/>
		<path class="st2" d="M49.6,86.9c0,0.9-0.2,1.7-0.5,2.5c-1,2.5-3.4,4.2-6.2,4.2h-0.1c-0.4,0-0.7,0-1-0.1c-3.2-0.5-5.6-3.3-5.6-6.6
			c0-1.3,0.4-2.6,1.1-3.6c0.3-0.4,0.6-0.8,1-1.2c1.2-1.2,2.8-1.9,4.6-1.9c1.4,0,2.8,0.5,3.8,1.2C48.5,82.6,49.6,84.6,49.6,86.9z"/>
		<path class="st2" d="M55.1,35.7c0,2.4-1.2,4.4-3.1,5.6c-1,0.7-2.3,1.1-3.6,1.1c-2.3,0-4.3-1.1-5.5-2.9c-0.8-1.1-1.2-2.4-1.2-3.9
			c0-0.1,0-0.1,0-0.2c0.1-3.1,2.2-5.6,5.1-6.3c0.5-0.1,1-0.2,1.6-0.2c0.5,0,1.1,0.1,1.6,0.2c2.9,0.7,5.1,3.2,5.2,6.3
			C55.1,35.6,55.1,35.7,55.1,35.7z"/>
		<circle class="st2" cx="103.3" cy="12.1" r="6.7"/>
		<path class="st2" d="M47.7,59.5c0,1.1-0.3,2.2-0.8,3.1c-0.8,1.5-2.1,2.7-3.7,3.2c-0.7,0.3-1.5,0.4-2.3,0.4c-1.8,0-3.5-0.7-4.7-1.9
			c-0.2-0.2-0.5-0.5-0.7-0.8c-0.8-1.1-1.3-2.5-1.3-4c0-1.9,0.8-3.6,2-4.8c0.4-0.4,0.9-0.8,1.4-1c1-0.6,2.1-0.9,3.3-0.9
			c1,0,2,0.2,2.9,0.7c0.9,0.4,1.8,1.1,2.4,1.9C47.2,56.5,47.7,57.9,47.7,59.5z"/>
		<circle class="st2" cx="149.5" cy="65.2" r="6.7"/>
		<circle class="st2" cx="145.1" cy="83.4" r="6.7"/>
		<path class="st2" d="M60.2,29c0,0.4,0,0.7-0.1,1.1c-0.4,2.7-2.4,4.8-5,5.4c-0.5,0.1-1,0.2-1.6,0.2c-2.6,0-4.8-1.4-5.9-3.6
			c-0.5-0.9-0.8-1.9-0.8-3c0-0.1,0-0.1,0-0.2c0-3.7,3-6.7,6.7-6.7c0.3,0,0.6,0,0.9,0.1c0.6,0.1,1.3,0.3,1.9,0.5
			C58.6,23.9,60.2,26.3,60.2,29z"/>
		<circle class="st2" cx="129.2" cy="23.8" r="6.7"/>
		<path class="st2" d="M92.8,10.1c0,1.5-0.5,3-1.4,4.1c-1.2,1.6-3.1,2.6-5.3,2.6c-0.8,0-1.5-0.1-2.1-0.4c-2.5-0.8-4.3-3.1-4.5-5.8
			c0-0.2,0-0.4,0-0.5c0-1.1,0.3-2.2,0.8-3.2c1.1-2.1,3.4-3.5,5.9-3.5c2.2,0,4.1,1,5.3,2.6c0.6,0.8,1.1,1.7,1.3,2.8
			C92.8,9.3,92.8,9.7,92.8,10.1z"/>
		<path class="st3" d="M148.6,197.6L148.6,197.6l-109.1,0v0c0-15.1,6.1-28.8,16.1-38.7c0.4-0.4,0.7-0.7,1.1-1.1
			c1.5-1.4,3.1-2.8,4.8-4c0.5-0.4,1-0.8,1.6-1.1c1.1-0.7,2.2-1.4,3.3-2.1c0.5-0.3,1.1-0.6,1.6-0.9c0,0,0,0,0,0
			c0.4-0.2,0.9-0.5,1.3-0.8c0.3-0.2,0.6-0.4,1-0.6c0.9-0.6,1.9-1.3,2.7-2v0c5-4,8.8-9.3,11-15.4c0.8-2.3,1.4-4.6,1.7-7.1
			c0.2-1.5,0.3-3,0.3-4.6l8,0l8.1,0c0,1.5,0.1,3,0.3,4.5c0.3,2.4,0.9,4.8,1.7,7c2.2,6.1,6,11.4,10.9,15.4c0.4,0.3,0.7,0.6,1.1,0.9
			c0,0,0,0,0,0c0.3,0.2,0.6,0.4,0.9,0.6c0.1,0.1,0.2,0.1,0.3,0.2c0.1,0.1,0.2,0.1,0.2,0.2c0,0,0.1,0,0.1,0.1c0.3,0.2,0.7,0.4,1,0.7
			c0.4,0.3,0.9,0.5,1.3,0.8c0.1,0,0.1,0.1,0.2,0.1c0.5,0.3,1,0.5,1.4,0.8c0.6,0.4,1.2,0.7,1.9,1.1c1.1,0.7,2.1,1.4,3.1,2.2h0
			c2.1,1.6,4,3.2,5.9,5.1C142.5,168.9,148.6,182.5,148.6,197.6z"/>
		<path class="st4" d="M148.6,197.6H39.5c0-15.1,6.1-28.8,16.1-38.7c0.4-0.4,0.7-0.7,1.1-1.1c1.5-1.4,3.1-2.8,4.8-4
			c0.5-0.4,1-0.8,1.6-1.1c1.1-0.7,2.2-1.4,3.3-2.1c0.5-0.3,1.1-0.6,1.6-0.9c0,0,0,0,0,0v0c0.9-0.5,1.7-1,2.6-1.6
			c0.4-0.3,0.8-0.5,1.2-0.8c0,0,0.1-0.1,0.1-0.1c0.3-0.2,0.6-0.4,0.8-0.6c0.1-0.1,0.2-0.2,0.3-0.2h0c0,0,0,0,0,0
			c0.7,0.7,1.4,1.3,2.1,1.9c0,0,0,0,0,0c1.8,1.5,3.8,2.8,6,3.9c3.9,1.9,8.3,3,12.9,3h0.1c8.2,0,15.7-3.4,21-8.8l0,0l0,0
			c0.4,0.3,0.8,0.6,1.2,0.9c0.3,0.2,0.5,0.4,0.8,0.6c0.1,0.1,0.2,0.1,0.3,0.2c0.1,0.1,0.2,0.1,0.2,0.2c0,0,0.1,0,0.1,0.1
			c0.3,0.2,0.7,0.4,1,0.7c0.4,0.3,0.9,0.5,1.3,0.7c0.1,0,0.1,0.1,0.2,0.1c0.5,0.3,1,0.5,1.4,0.8c0.6,0.4,1.2,0.8,1.8,1.1
			c1.1,0.7,2.1,1.4,3.1,2.2h0c2.1,1.6,4,3.3,5.9,5.1C142.5,168.9,148.6,182.5,148.6,197.6z"/>
		<g>
			<path class="st5" d="M121.7,150.6L121.7,150.6l-1.1,1.2c-7.1,7.2-16.5,11.1-26.5,11.1c0,0,0,0,0,0c-10.1,0-19.5-4-26.6-11.2
				l-1.1-1.1l0,0c0.5-0.3,1.1-0.6,1.6-0.9c0,0,0,0,0,0v0c0.4-0.2,0.9-0.5,1.3-0.8c0.3-0.2,0.6-0.4,1-0.6c0.1-0.1,0.2-0.1,0.3-0.2
				c0.4-0.3,0.8-0.5,1.2-0.8c0,0,0.1-0.1,0.1-0.1c0.3-0.2,0.6-0.4,0.8-0.6c0.1-0.1,0.2-0.2,0.3-0.2c0,0,0,0,0,0h0v0
				c0.7,0.7,1.3,1.3,2.1,1.9c0,0,0,0,0,0c1.8,1.5,3.8,2.9,6,3.9c3.9,1.9,8.3,3,12.9,3h0.1c8.2,0,15.7-3.4,21-8.8l0,0l0,0
				c0.4,0.3,0.7,0.6,1.1,0.9c0,0,0,0,0,0c0,0,0,0,0.1,0c0.3,0.2,0.5,0.4,0.8,0.6c0.1,0.1,0.2,0.1,0.3,0.2c0.1,0.1,0.2,0.1,0.2,0.2
				c0,0,0.1,0,0.1,0.1c0.3,0.2,0.7,0.4,1,0.7c0.4,0.3,0.9,0.5,1.3,0.7c0.1,0,0.1,0.1,0.2,0.1C120.7,150,121.2,150.3,121.7,150.6z"/>
		</g>
		<path class="st3" d="M135.9,56.4v24.5c0,2.3-0.2,4.6-0.5,6.8c-0.8,5.6-2.4,10.8-4.7,15.7c-0.7,1.4-1.4,2.8-2.2,4.2
			c-0.2,0.3-0.4,0.6-0.5,0.9c-1.6,2.6-3.3,5.1-5.2,7.4c-0.5,0.6-1,1.2-1.5,1.7c-5.3,6.1-11.4,10.7-17.3,13.3
			c-3.5,1.6-7,2.4-10.1,2.4c-3.1,0-6.5-0.8-10-2.4c-5.9-2.6-12.1-7.2-17.4-13.3c-0.5-0.6-1.1-1.3-1.6-1.9c-2.4-3-4.6-6.3-6.4-9.8
			c-0.5-0.9-0.9-1.7-1.3-2.6c-0.2-0.5-0.5-1.1-0.7-1.6c-0.4-0.8-0.7-1.6-1-2.5c-1-2.6-1.8-5.4-2.4-8.2c-0.2-1.1-0.4-2.2-0.6-3.3
			c-0.3-2.2-0.5-4.5-0.5-6.8V56.4L135.9,56.4L135.9,56.4z"/>
		<path class="st2" d="M51.2,87.9L51.2,87.9c3.1,0,5.6-2.5,5.6-5.6V55.7h-5.6V87.9z"/>
		<path class="st2" d="M131.4,55.7h5.6v32.3l0,0c-3.1,0-5.6-2.5-5.6-5.6V55.7z"/>
		<circle class="st2" cx="83.7" cy="57.4" r="6.7"/>
		<circle class="st2" cx="68.1" cy="55.9" r="6.7"/>
		<circle class="st2" cx="52.2" cy="58.5" r="6.7"/>
		<circle class="st2" cx="103.3" cy="56.7" r="6.7"/>
		<circle class="st2" cx="123.5" cy="56.7" r="6.7"/>
		<circle class="st2" cx="137.5" cy="63" r="6.7"/>
		<circle class="st2" cx="94.1" cy="57.9" r="5.1"/>
		<circle class="st2" cx="59.5" cy="57.4" r="5.1"/>
		<circle class="st2" cx="77" cy="57.4" r="5.1"/>
		<circle class="st2" cx="113.8" cy="59" r="5.1"/>
		<circle class="st2" cx="130.3" cy="59" r="5.1"/>
		<path class="st6" d="M129.3,69.1c0-0.2-0.1-0.3-0.3-0.3c-1.4-0.2-7.8-1.1-14.6-1.1c-7.8,0-17.8,2.4-19.5,2.4h-1.6
			c-0.8,0-3.4-0.5-6.8-1.1c-3.8-0.6-8.6-1.3-12.8-1.3c-5,0-9.8,0.5-12.5,0.8c-1,0.1-1.7,0.2-2.1,0.3c-0.2,0-0.3,0.2-0.3,0.3
			l-0.1,4.2c0,0.2,0.1,0.3,0.2,0.3l0.5,0.2c0.7,0.3,0.6,12.8,4.4,16c2.2,1.9,4.2,2.9,12.6,2.9c4.8,0,7.9-1.3,10.8-5.2
			c2.1-2.8,3.9-9.4,3.9-9.4c0.6-2.7,2.6-2.9,2.9-3c0,0,0,0,0,0c0.1,0,2.4,0,3,3c0,0,1.9,6.6,3.9,9.4c2.9,3.9,5.9,5.2,10.8,5.2
			c8.3,0,10.3-1.1,12.6-2.9c3.8-3.1,3.7-15.7,4.4-16l0.5-0.2c0.1-0.1,0.2-0.2,0.2-0.3L129.3,69.1z"/>
	</g>
</g>
<g>
	<defs>
		<circle id="SVGID_3_" cx="94.1" cy="94.1" r="94.1"/>
	</defs>
	<clipPath id="SVGID_4_">
		<use xlink:href="#SVGID_3_"  style="overflow:visible;"/>
	</clipPath>
	<circle class="st7" cx="144.2" cy="92.9" r="7.5"/>
</g>
<g>
	<defs>
		<circle id="SVGID_5_" cx="94.1" cy="94.1" r="94.1"/>
	</defs>
	<clipPath id="SVGID_6_">
		<use xlink:href="#SVGID_5_"  style="overflow:visible;"/>
	</clipPath>
	<circle class="st8" cx="151.8" cy="55.8" r="5.1"/>
</g>
<circle class="st9" cx="94.1" cy="94.1" r="94.1"/>
<circle class="st2" cx="150.6" cy="75" r="5.1"/>
</svg>
