<svg xmlns="http://www.w3.org/2000/svg" viewBox="0 0 300 300"><defs><style>.cls-1{isolation:isolate;}.cls-2{fill:#6bcbb8;}.cls-3,.cls-7{fill:#f1dbcb;}.cls-4{fill:#f2dab2;}.cls-5{fill:#d3bfcc;}.cls-6{fill:#543e36;}.cls-7{opacity:0.5;mix-blend-mode:multiply;}</style></defs><title>askizzyav</title><g class="cls-1"><g id="Layer_1" data-name="Layer 1"><rect class="cls-2" width="300" height="300"/><path class="cls-3" d="M234.48,318.76H65.42a84.21,84.21,0,0,1,24.94-60c.72-.71,1.43-1.4,2.18-2.09,1.1-1,2.25-2,3.41-3s2.35-1.88,3.56-2.79c1.59-1.2,3.25-2.31,4.92-3.39s3.4-2.11,5.16-3.06a.11.11,0,0,1,.07,0c.68-.38,1.35-.76,2-1.18a48.1,48.1,0,0,0,5.72-4,53.66,53.66,0,0,0,17.06-23.78v0a53.26,53.26,0,0,0,3.12-18l12.42,0,12.57.06a53.2,53.2,0,0,0,20,41.73h0c.53.43,1.07.85,1.61,1.24.75.56,1.52,1.1,2.28,1.61.58.39,1.17.77,1.75,1.12s1.33.8,2,1.16l.16.07.14.09c2,1.09,3.87,2.23,5.72,3.45.62.39,1.24.81,1.85,1.24.8.57,1.61,1.15,2.39,1.75h0A84.31,84.31,0,0,1,234.48,318.76Z"/><path class="cls-4" d="M234.48,318.76H65.42a84.21,84.21,0,0,1,24.94-60c.72-.71,1.43-1.4,2.18-2.09,1.1-1,2.25-2,3.41-3s2.35-1.91,3.56-2.81c1.59-1.18,3.25-2.31,4.92-3.37s3.4-2.11,5.16-3.06a.11.11,0,0,1,.07,0c.68-.38,1.35-.76,2-1.18a48.1,48.1,0,0,0,5.72-4A45.51,45.51,0,0,0,150,253h0a45.49,45.49,0,0,0,32.57-13.71c.53.43,1.07.85,1.61,1.24.75.56,1.52,1.1,2.28,1.61.58.39,1.17.77,1.75,1.12s1.33.8,2,1.16l.16.07a.41.41,0,0,1,.14.08q2.94,1.62,5.72,3.46c.62.39,1.24.81,1.85,1.24.8.57,1.61,1.15,2.39,1.75h0A84.31,84.31,0,0,1,234.48,318.76Z"/><path class="cls-3" d="M214.83,85v52.9c0,.7,0,1.4,0,2.1l-.05,1.29c0,.77-.08,1.53-.15,2.3-2.48,33.86-26.87,62-49,71.89A39.43,39.43,0,0,1,150,219.18H150a39.32,39.32,0,0,1-15.49-3.66v0c-22.17-9.77-46.67-38-49.17-71.95-.06-.77-.11-1.53-.14-2.3L85.1,140q0-1.05,0-2.1V85Z"/><path class="cls-5" d="M182.6,239.29c-5.45,16.78-16.43,33.39-32.61,47-16.17-13.58-27.14-30.19-32.59-47l.26.1a48.46,48.46,0,0,0,64.65,0Z"/><ellipse class="cls-6" cx="149.95" cy="109.42" rx="57.26" ry="20.31" transform="translate(-9.18 13.85) rotate(-5.13)"/><path class="cls-6" d="M214.83,85v16.27H85.07V85h.05c.79-18.68,11.36-53.6,64.84-53.6h0c53.42,0,64,34.92,64.78,53.6Z"/><path class="cls-6" d="M124,110.24c-.49,0-1,0-1.48,0a37.43,37.43,0,0,0-37.18,33.35c-.06-.77-.11-1.53-.14-2.3L85.1,140q0-1.05,0-2.1V85H112.7a37.6,37.6,0,0,1,7.08,9.51,38.35,38.35,0,0,1,2.72,6.76A37.69,37.69,0,0,1,124,110.24Z"/><path class="cls-6" d="M175.94,110.24c.5,0,1,0,1.48,0a37.4,37.4,0,0,1,37.18,33.35c.16-1.89.23-3.78.23-5.69V85H187.19A37.21,37.21,0,0,0,175.94,110.24Z"/><path class="cls-7" d="M150,31.36V318.77H65.42a84.21,84.21,0,0,1,24.94-60c.72-.71,1.43-1.4,2.18-2.09,1.1-1,2.25-2,3.41-3s2.35-1.91,3.56-2.81c1.59-1.18,3.25-2.31,4.92-3.37s3.4-2.11,5.16-3.06a.11.11,0,0,1,.07,0c.68-.38,1.35-.76,2-1.18a48.1,48.1,0,0,0,5.72-4,53.66,53.66,0,0,0,17.06-23.78v0c-22.17-9.77-46.67-38-49.17-71.95-.06-.77-.11-1.53-.14-2.3L85.1,140q0-1.05,0-2.1V85h.05c.79-18.68,11.36-53.6,64.84-53.6Z"/></g></g></svg>