<svg id="layer" xmlns="http://www.w3.org/2000/svg" viewBox="0 0 704.3 224.74"><defs><style>.cls-1{fill:#fdd631;}.cls-2{fill:#fff;}</style></defs><title>ask-izzy-logo-vector-edited</title><path class="cls-1" d="M76.49,71.82c4.5,8.77-4.7,17.44-14,13.2a8.34,8.34,0,0,1-4.1-3.87c-4.5-8.76,4.7-17.43,14-13.19a8.82,8.82,0,0,1,4.1,3.86"/><path class="cls-1" d="M119.19,71.65c3.8,9.1-5.2,17.7-14.3,13.3a8.55,8.55,0,0,1-4.1-4.1,10.32,10.32,0,0,1,13.3-14.3,9.81,9.81,0,0,1,5.1,5.1"/><path class="cls-1" d="M154.09,38.05a22.24,22.24,0,0,0-20.6-15h-.2l-88.2-.5h-.3a22.3,22.3,0,0,0-21.4,16.1,12.58,12.58,0,0,0-.8,5.5,24.73,24.73,0,0,0,.4,4.7l6.6,60.1a13.55,13.55,0,0,0,6.8,10.3,108.18,108.18,0,0,0,48.1,11.6,93.48,93.48,0,0,0,21.9-2.6,8.84,8.84,0,0,0,1.6-.3l1-.3c1.3-.4,2.7-.8,4-1.2l15.5,18.5a13.56,13.56,0,0,0,10.9,5.7,16.86,16.86,0,0,0,3.8-.5,13.37,13.37,0,0,0,9.6-12.2l2.5-93.6a15.63,15.63,0,0,0-1.2-6.3m-14.7,99-12.6-15.9a6.68,6.68,0,0,0-4.7-12.5l-4.1,1.4-.1-.2c-.9.4-1.7.8-2.6,1.2l-10.3,3.6a77.66,77.66,0,0,1-20.4,2.6,95.78,95.78,0,0,1-37.6-8,9.41,9.41,0,0,1-4.5-6.3l-6.2-56.5a8.22,8.22,0,0,1-.3-2.2v-1h.1a8.74,8.74,0,0,1,8.7-7.4H45l88.3.4a8.71,8.71,0,0,1,8.5,7.1h.1Z"/><path class="cls-1" d="M212.19,82.35a2.47,2.47,0,0,0-2.3-1.6h-16.8a2.57,2.57,0,0,0-2.4,1.7L158.49,171a2.54,2.54,0,0,0,.3,2.4,2.46,2.46,0,0,0,2.1,1.1h14.8a2.61,2.61,0,0,0,2.4-1.7l8.5-23.5h31.3l8.9,23.6a2.47,2.47,0,0,0,2.3,1.6h14.5a2.5,2.5,0,0,0,2.5-2.5v-.1a2.92,2.92,0,0,0-.3-1.3Zm-10.6,24,9.6,25.2h-18.7Z"/><path class="cls-1" d="M303.29,141.05a25,25,0,0,0-4.1-3.8,23.6,23.6,0,0,0-4.9-2.8,59.75,59.75,0,0,0-9.8-3.3c-3.2-.8-6.4-1.6-9.6-2.5-1-.2-1.9-.5-2.9-.8a10.92,10.92,0,0,1-2.2-1,5.21,5.21,0,0,1-1.4-1.2,2.11,2.11,0,0,1-.3-1.2c0-.5,0-1.3,1.9-2a23,23,0,0,1,8.1-1.2,15.71,15.71,0,0,1,6.8,1.2,17.37,17.37,0,0,1,4.8,3.5,2.74,2.74,0,0,0,1.9.8,3,3,0,0,0,1.9-.7l8.8-8.5a2.64,2.64,0,0,0,.1-3.6,31.15,31.15,0,0,0-10.7-7.5,34.3,34.3,0,0,0-13.3-2.6,51.05,51.05,0,0,0-11.5,1.2,29.34,29.34,0,0,0-9.2,3.7,19.09,19.09,0,0,0-6.3,6.4,17.46,17.46,0,0,0-2.3,8.9,20.27,20.27,0,0,0,3.2,11.6,21.27,21.27,0,0,0,8.8,7.3,47.81,47.81,0,0,0,10.5,3.5c3.5.7,6.8,1.6,9.9,2.5a18.94,18.94,0,0,1,5.4,2.4,2.73,2.73,0,0,1,1.4,2.6c0,1.2,0,4.8-10.1,4.8q-6.15,0-9.3-1.5a15.61,15.61,0,0,1-5.7-5,2.66,2.66,0,0,0-3.5-.7l-10.5,6.5a2.46,2.46,0,0,0-.92,3.37l0,0a26.44,26.44,0,0,0,12.6,11.8,43.84,43.84,0,0,0,16.6,3.1,49.4,49.4,0,0,0,10.9-1.2,28.4,28.4,0,0,0,9.7-4.1,21.67,21.67,0,0,0,6.9-7.5,23,23,0,0,0,2.6-11.2,15.37,15.37,0,0,0-1.2-6.1,15.7,15.7,0,0,0-3.1-5.2"/><path class="cls-1" d="M373.59,158.85a30.86,30.86,0,0,1-4.3-.3,4.32,4.32,0,0,1-2.7-2l-14.2-17.7,22.7-29.6a2.42,2.42,0,0,0,.2-2.7,2.68,2.68,0,0,0-2.4-1.4h-15.6a2.85,2.85,0,0,0-2.2,1l-19.7,25h-1.1V81.85a2.46,2.46,0,0,0-1.1-2,2.76,2.76,0,0,0-2.3-.5l-15.3,3.8a2.55,2.55,0,0,0-2,2.5v86.2a2.66,2.66,0,0,0,2.7,2.6h15.2a2.67,2.67,0,0,0,2.7-2.6v-25.4h1l16.7,20.5c.7.9,1.5,1.8,2.4,2.8a26.53,26.53,0,0,0,3,2.9,15.94,15.94,0,0,0,3.9,2.4,11.78,11.78,0,0,0,4.9,1,23.38,23.38,0,0,0,4-.4,15.9,15.9,0,0,0,4.6-1.4,2.57,2.57,0,0,0,1.5-2.3v-10.4a2.5,2.5,0,0,0-2.27-2.7h-.33"/><path class="cls-2" d="M406.29,77.55h-14.2a2.68,2.68,0,0,0-2.7,2.68v92.52a2.69,2.69,0,0,0,2.68,2.7h14.22a2.7,2.7,0,0,0,2.7-2.68V80.25a2.83,2.83,0,0,0-2.7-2.7"/><path class="cls-2" d="M477.59,157.55h-31.2l-4,.7,31.6-35.8a17.53,17.53,0,0,0,4.5-11.9v-2.7a2.69,2.69,0,0,0-2.68-2.7H420.49a2.68,2.68,0,0,0-2.7,2.68v12a2.69,2.69,0,0,0,2.68,2.7h28.12l2.7-.4-31.1,35.3a14.52,14.52,0,0,0-1.8,2.6,20.94,20.94,0,0,0-1.3,2.7,15.66,15.66,0,0,0-1.3,6.4v3.7a2.69,2.69,0,0,0,2.68,2.7h55.92a2.68,2.68,0,0,0,2.6-2l3.3-12.5a2.83,2.83,0,0,0-2.06-3.42,2.8,2.8,0,0,0-.64-.08"/><path class="cls-2" d="M545.69,157.55h-31.2l-4,.7,31.6-35.8a17.63,17.63,0,0,0,4.6-11.9v-2.7a2.69,2.69,0,0,0-2.68-2.7H488.59a2.68,2.68,0,0,0-2.7,2.68v12a2.69,2.69,0,0,0,2.68,2.7h28.12l2.7-.4-31.1,35.3a14.52,14.52,0,0,0-1.8,2.6,20.94,20.94,0,0,0-1.3,2.7,15.66,15.66,0,0,0-1.3,6.4v3.7a2.69,2.69,0,0,0,2.68,2.7h55.92a2.68,2.68,0,0,0,2.6-2l3.3-12.5a2.83,2.83,0,0,0-2.06-3.42,2.8,2.8,0,0,0-.64-.08"/><path class="cls-2" d="M623,109.65a2.45,2.45,0,0,0-1.57-1.43l-13-4.16a2.59,2.59,0,0,0-3.23,1.64L587.09,153,570.22,105a2.63,2.63,0,0,0-3.16-1.67L554,107a2.4,2.4,0,0,0-1.62,1.37,2.74,2.74,0,0,0-.15,2.19l20,57.31a10.12,10.12,0,0,0,6.68,6.53l-2.76,7.15c-.53,1.39-.94,2-1.14,2.07a8,8,0,0,1-2.71.25l-5.4-.11a2.61,2.61,0,0,0-2.65,2.57.11.11,0,0,0,0,.08l-.22,11.1a2.7,2.7,0,0,0,1.85,2.64,31.81,31.81,0,0,0,5.28,1.3,37.36,37.36,0,0,0,5.39.61,14,14,0,0,0,6.22-1.18,18.31,18.31,0,0,0,8.56-7.94,37.64,37.64,0,0,0,2.5-5.15L623.1,112a2.65,2.65,0,0,0-.06-2.3"/><path class="cls-2" d="M641,92.47H626.41a8.55,8.55,0,1,1,0-17.09H641V61.14a8.79,8.79,0,0,1,17.58,0V75.38h14.61a8.55,8.55,0,0,1,0,17.09H658.6v14.24a8.79,8.79,0,0,1-17.58,0Z"/></svg>