<svg xmlns="http://www.w3.org/2000/svg" viewBox="0 0 600.77 179.51"><defs><style>.cls-1{fill:#fdd631;}.cls-2{fill:#fff;}</style></defs><title>Asset 1</title><g id="Layer_2" data-name="Layer 2"><g id="layer"><path class="cls-1" d="M53.92,49.27c4.5,8.77-4.7,17.44-14,13.2a8.39,8.39,0,0,1-4.1-3.87c-4.5-8.76,4.7-17.43,14-13.19a8.83,8.83,0,0,1,4.1,3.86"/><path class="cls-1" d="M96.62,49.1c3.8,9.1-5.2,17.7-14.3,13.3a8.59,8.59,0,0,1-4.1-4.1A10.32,10.32,0,0,1,91.52,44a9.78,9.78,0,0,1,5.1,5.1"/><path class="cls-1" d="M131.52,15.5a22.24,22.24,0,0,0-20.6-15h-.2L22.52,0h-.3A22.32,22.32,0,0,0,.82,16.1,12.7,12.7,0,0,0,0,21.6a25.58,25.58,0,0,0,.4,4.7L7,86.4a13.55,13.55,0,0,0,6.8,10.3,108.12,108.12,0,0,0,48.1,11.6,93.11,93.11,0,0,0,21.9-2.6,9,9,0,0,0,1.6-.3l1-.3,4-1.2,15.5,18.5a13.56,13.56,0,0,0,10.9,5.7,16.52,16.52,0,0,0,3.8-.5,13.37,13.37,0,0,0,9.6-12.2l2.5-93.6a15.39,15.39,0,0,0-1.2-6.3m-14.7,99-12.6-15.9a6.68,6.68,0,0,0-4.7-12.5l-4.1,1.4-.1-.2c-.9.4-1.7.8-2.6,1.2l-10.3,3.6A77.68,77.68,0,0,1,62,94.7a95.61,95.61,0,0,1-37.6-8,9.44,9.44,0,0,1-4.5-6.3l-6.2-56.5a8.33,8.33,0,0,1-.3-2.2v-1h.1a8.74,8.74,0,0,1,8.7-7.4h.2l88.3.4a8.71,8.71,0,0,1,8.5,7.1h.1Z"/><path class="cls-1" d="M189.62,59.8a2.47,2.47,0,0,0-2.3-1.6h-16.8a2.59,2.59,0,0,0-2.4,1.7l-32.2,88.5a2.57,2.57,0,0,0,.3,2.4,2.48,2.48,0,0,0,2.1,1.1h14.8a2.59,2.59,0,0,0,2.4-1.7l8.5-23.5h31.3l8.9,23.6a2.47,2.47,0,0,0,2.3,1.6H221a2.5,2.5,0,0,0,2.5-2.6,2.77,2.77,0,0,0-.3-1.3ZM179,83.8l9.6,25.2h-18.7Z"/><path class="cls-1" d="M280.72,118.5a24.65,24.65,0,0,0-4.1-3.8,23.86,23.86,0,0,0-4.9-2.8,59.46,59.46,0,0,0-9.8-3.3c-3.2-.8-6.4-1.6-9.6-2.5-1-.2-1.9-.5-2.9-.8a11.21,11.21,0,0,1-2.2-1,5.26,5.26,0,0,1-1.4-1.2,2.2,2.2,0,0,1-.3-1.2c0-.5,0-1.3,1.9-2a23.07,23.07,0,0,1,8.1-1.2,15.63,15.63,0,0,1,6.8,1.2,17.32,17.32,0,0,1,4.8,3.5,2.73,2.73,0,0,0,1.9.8,2.94,2.94,0,0,0,1.9-.7l8.8-8.5a2.63,2.63,0,0,0,.1-3.6,31,31,0,0,0-10.7-7.5,34.28,34.28,0,0,0-13.3-2.6,51.4,51.4,0,0,0-11.5,1.2,29.53,29.53,0,0,0-9.2,3.7,19.24,19.24,0,0,0-6.3,6.4,17.6,17.6,0,0,0-2.3,8.9,20.31,20.31,0,0,0,3.2,11.6,21.26,21.26,0,0,0,8.8,7.3,48,48,0,0,0,10.5,3.5c3.5.7,6.8,1.6,9.9,2.5a19.18,19.18,0,0,1,5.4,2.4,2.71,2.71,0,0,1,1.4,2.6c0,1.2,0,4.8-10.1,4.8q-6.15,0-9.3-1.5a15.63,15.63,0,0,1-5.7-5,2.67,2.67,0,0,0-3.5-.7l-10.5,6.5a2.47,2.47,0,0,0-.9,3.4,26.45,26.45,0,0,0,12.6,11.8,43.83,43.83,0,0,0,16.6,3.1,49.21,49.21,0,0,0,10.9-1.2,28.14,28.14,0,0,0,9.7-4.1,21.57,21.57,0,0,0,6.9-7.5,22.89,22.89,0,0,0,2.6-11.2,15.09,15.09,0,0,0-1.2-6.1,15.62,15.62,0,0,0-3.1-5.2"/><path class="cls-1" d="M351,136.3a31.08,31.08,0,0,1-4.3-.3,4.34,4.34,0,0,1-2.7-2l-14.2-17.7,22.7-29.6a2.42,2.42,0,0,0,.2-2.7,2.69,2.69,0,0,0-2.4-1.4h-15.6a2.87,2.87,0,0,0-2.2,1l-19.7,25h-1.1V59.3a2.43,2.43,0,0,0-1.1-2,2.75,2.75,0,0,0-2.3-.5L293,60.6a2.56,2.56,0,0,0-2,2.5v86.2a2.67,2.67,0,0,0,2.7,2.6h15.2a2.67,2.67,0,0,0,2.7-2.6V123.9h1l16.7,20.5c.7.9,1.5,1.8,2.4,2.8a27.55,27.55,0,0,0,3,2.9,15.77,15.77,0,0,0,3.9,2.4,11.62,11.62,0,0,0,4.9,1,23.15,23.15,0,0,0,4-.4,15.51,15.51,0,0,0,4.6-1.4,2.53,2.53,0,0,0,1.5-2.3V139a2.49,2.49,0,0,0-2.6-2.7"/><path class="cls-2" d="M383.72,55h-14.2a2.69,2.69,0,0,0-2.7,2.7v92.5a2.69,2.69,0,0,0,2.7,2.7h14.2a2.69,2.69,0,0,0,2.7-2.7V57.7a2.82,2.82,0,0,0-2.7-2.7"/><path class="cls-2" d="M455,135h-31.2l-4,.7,31.6-35.8a17.49,17.49,0,0,0,4.5-11.9V85.3a2.69,2.69,0,0,0-2.7-2.7h-55.3a2.69,2.69,0,0,0-2.7,2.7v12a2.69,2.69,0,0,0,2.7,2.7H426l2.7-.4-31.1,35.3a15.1,15.1,0,0,0-1.8,2.6,21.86,21.86,0,0,0-1.3,2.7,15.93,15.93,0,0,0-1.3,6.4v3.7a2.69,2.69,0,0,0,2.7,2.7h55.9a2.67,2.67,0,0,0,2.6-2l3.3-12.5A2.82,2.82,0,0,0,455,135"/><path class="cls-2" d="M523.12,135h-31.2l-4,.7,31.6-35.8a17.58,17.58,0,0,0,4.6-11.9V85.3a2.69,2.69,0,0,0-2.7-2.7H466a2.69,2.69,0,0,0-2.7,2.7v12A2.69,2.69,0,0,0,466,100h28.1l2.7-.4-31.1,35.3a15.1,15.1,0,0,0-1.8,2.6,21.86,21.86,0,0,0-1.3,2.7,15.93,15.93,0,0,0-1.3,6.4v3.7A2.69,2.69,0,0,0,464,153h55.9a2.67,2.67,0,0,0,2.6-2l3.3-12.5a2.82,2.82,0,0,0-2.7-3.5"/><path class="cls-2" d="M600.48,87.1a2.47,2.47,0,0,0-1.57-1.43l-13-4.16a2.6,2.6,0,0,0-3.23,1.64L564.52,130.4,547.66,82.47a2.64,2.64,0,0,0-3.17-1.67l-13.07,3.65a2.43,2.43,0,0,0-1.63,1.37,2.79,2.79,0,0,0-.14,2.19l20,57.31a10.09,10.09,0,0,0,6.67,6.53L553.56,159c-.53,1.39-.94,2-1.14,2.07a7.77,7.77,0,0,1-2.71.25l-5.39-.11a2.62,2.62,0,0,0-2.66,2.65l-.21,11.1a2.69,2.69,0,0,0,1.84,2.64,32.36,32.36,0,0,0,5.28,1.3,37.05,37.05,0,0,0,5.39.61,13.86,13.86,0,0,0,6.22-1.18,18.09,18.09,0,0,0,5-3.3,17.87,17.87,0,0,0,3.59-4.64,34.68,34.68,0,0,0,2.5-5.15L600.53,89.4a2.65,2.65,0,0,0,0-2.3"/></g></g></svg>